# xmcd
#
# Track frame offsets:
#	150
#	19100
#	34443
#	47203
#	66020
#	80381
#	98392
#	114221
#	130338
#	149958
#	169053
#	183366
#	201414
#	221312
#	241715
#	257478
#	273719
#
# Disc length: 3930 seconds
#
# Revision: 1
# Processed by: cddbd v1.5.2PL0 Copyright (c) Steve Scherf et al.
# Submitted via: audiograbber 1.83.01
#
DISCID=f30f5811
DTITLE=Various Artist - Back In The Day Cafe
DYEAR=1900
DGENRE=
TTITLE0=Back In The Day Cafe 
TTITLE1=I'm Back
TTITLE2=That's All I Want From You
TTITLE3=You Got It
TTITLE4=Let It Be Me
TTITLE5=You Should Know
TTITLE6=He'z My Baby
TTITLE7=Three Little Words 
TTITLE8=Dont Believe I'm Leaving
TTITLE9=It's No Use
TTITLE10=Eugene 
TTITLE11=Have A Real Good Time 
TTITLE12=I'll Be Loving You
TTITLE13=Overnight
TTITLE14=Hard Headed
TTITLE15=Stop Me Before I Love Again
TTITLE16=Five O'Clock In The Morning
EXTD=
EXTT0=
EXTT1=
EXTT2=
EXTT3=
EXTT4=
EXTT5=
EXTT6=
EXTT7=
EXTT8=
EXTT9=
EXTT10=
EXTT11=
EXTT12=
EXTT13=
EXTT14=
EXTT15=
EXTT16=
PLAYORDER=
